<svg width="238" height="59" viewBox="0 0 238 59" fill="none" xmlns="http://www.w3.org/2000/svg">
<path d="M64.0279 29.6898H55.3975V18.2143H64.4965C67.827 18.2143 69.4923 20.1564 69.4923 24.0415C69.4923 27.8077 67.6701 29.6917 64.0279 29.6917M70.2308 18.0805C69.0408 16.6803 67.3934 15.9801 65.267 15.9801L52.9074 16.0706V43.5253H55.3975L55.3752 31.8374H64.5724C66.878 31.8374 68.6942 31.1372 70.0188 29.737C71.3435 28.3367 72.0061 26.3936 72.0061 23.9088C72.0061 21.4239 71.4149 19.4818 70.2323 18.0805H70.2308ZM86.3494 37.76C86.1112 38.6581 85.7046 39.4617 85.1675 40.0954C84.0519 41.535 82.3502 42.2538 80.061 42.2538C77.9933 42.2538 76.4077 41.5655 75.301 40.1554C74.1943 38.7453 73.6402 36.8839 73.6402 34.5376C73.6402 33.3163 73.7852 32.2317 74.0745 31.2857C74.3638 30.3398 74.7841 29.5413 75.3344 28.8903C76.4798 27.5107 78.0551 26.8204 80.0617 26.8204C84.5064 26.8204 86.7294 29.3928 86.7294 34.5376C86.7294 35.7599 86.603 36.8337 86.3575 37.76M86.809 27.6317C85.2918 25.8027 83.0456 24.8783 80.0691 24.8783C77.2578 24.8783 75.0845 25.8125 73.5524 27.6808C72.169 29.3722 71.4699 31.6535 71.4699 34.5268C71.4699 37.3785 72.1839 39.6795 73.6119 41.4298C74.4003 42.3738 75.3188 43.0582 76.3682 43.481C77.4177 43.9039 78.6486 44.1153 80.0617 44.1153C83.0218 44.1153 85.268 43.2106 86.8239 41.4013C88.2073 39.7493 88.9064 37.4679 88.9064 34.5258C88.9064 31.5758 88.2073 29.2748 86.809 27.6208V27.6317ZM105.639 38.5535C105.639 42.2489 103.135 44.0966 98.1274 44.0966C96.5968 44.0966 95.3071 43.9688 94.2599 43.7111C93.2127 43.4535 92.3611 43.0277 91.7073 42.4348C91.2028 41.9835 90.7894 41.3758 90.5032 40.6648C90.2057 39.9371 90.0123 39.0226 89.9231 37.9114L92.2533 37.8819C92.2533 39.3373 92.6608 40.4071 93.4767 41.0955C94.3521 41.9215 95.9013 42.3345 98.1274 42.3345C101.627 42.3345 103.378 41.1741 103.378 38.8554C103.378 37.4984 102.783 36.5662 101.617 36.0529C101.379 35.9546 99.9637 35.694 97.3777 35.2722C94.7917 34.8503 93.1681 34.4707 92.5299 34.1364C91.148 33.4087 90.4571 32.1009 90.4571 30.2149C90.4571 28.3662 91.0744 26.9895 92.3165 26.0868C92.9263 25.7132 93.6887 25.4241 94.6042 25.2166C95.5198 25.0091 96.5797 24.9068 97.7845 24.9068C102.606 24.9068 105.016 26.907 105.016 30.9052H102.8C102.8 28.0929 101.104 26.6768 97.7161 26.6768C95.9921 26.6768 94.7061 26.9718 93.859 27.5323C93.0119 28.0928 92.5887 28.9779 92.5887 30.1579C92.5887 31.2592 93.1614 32.0557 94.3053 32.5473C94.9746 32.803 96.5127 33.098 98.921 33.4323C101.076 33.688 102.556 34.0518 103.358 34.514C104.89 35.3007 105.655 36.638 105.655 38.5231L105.639 38.5535ZM114.792 43.5617L113.844 43.7387L113.252 43.7977C111.735 43.7977 110.649 43.5076 109.97 42.9254C109.291 42.3433 108.964 41.3256 108.964 39.8771V27.3347H106.207V25.4919H108.95L108.972 19.5723H111.096V25.4919H114.796V27.3642L111.096 27.3347V39.5251C111.096 40.4327 111.278 41.0591 111.643 41.3934C112.007 41.7278 112.657 41.9106 113.594 41.9106C113.728 41.9303 113.877 41.9244 114.041 41.891C114.289 41.8326 114.534 41.7584 114.777 41.6687L114.799 43.5371L114.792 43.5617ZM129.485 39.4022C128.905 40.0315 128.244 40.5114 127.501 40.8477C126.758 41.184 125.903 41.3393 124.938 41.3393C120.495 41.3393 118.274 38.9134 118.274 34.0627C118.274 31.8039 118.842 30.0359 119.98 28.7586C121.117 27.4812 122.717 26.843 124.783 26.843C126.863 26.843 128.442 27.4871 129.519 28.7733C130.596 30.0595 131.135 31.7843 131.135 33.9457C131.135 36.3027 130.585 38.1199 129.485 39.3963M133.26 25.4968H131.136L131.113 28.5943C130.176 27.3357 129.507 26.5421 129.105 26.2078C127.915 25.3425 126.377 24.9118 124.489 24.9118C121.724 24.9118 119.611 25.7476 118.155 27.4173C116.772 28.9513 116.082 31.1707 116.082 34.0784C116.082 35.5141 116.256 36.7944 116.606 37.9134C116.955 39.0324 117.466 40.001 118.136 40.7867C119.595 42.3974 121.657 43.2037 124.324 43.2037C127.525 43.2037 129.796 42.0463 131.136 39.7306V42.9363C131.136 44.9816 130.649 46.5628 129.676 47.6838C128.702 48.8048 127.1 49.3555 124.87 49.3555C122.772 49.3555 121.279 48.9621 120.387 48.2109C119.718 47.6238 119.257 46.6061 119.004 45.1576H116.817C117.055 47.1803 117.71 48.6435 118.751 49.5462C119.971 50.5866 122.023 51.1068 124.924 51.1068C130.472 51.1068 133.254 48.38 133.254 42.9254V25.5047L133.26 25.4968ZM144.751 27.319C144.111 27.1813 143.518 27.1223 142.969 27.1223C139.477 27.1223 137.731 29.6544 137.731 34.7166V43.5213H135.629L135.607 25.5047L137.732 25.5322V28.7478H137.844C138.201 27.4812 138.766 26.5205 139.538 25.8666C140.384 25.2333 141.647 24.9167 143.327 24.9167H144.752V27.3357L144.751 27.319ZM146.727 33.3743C146.995 31.327 147.597 29.7419 148.532 28.6189C149.142 27.9699 149.834 27.4812 150.606 27.1567C151.378 26.8322 152.242 26.669 153.215 26.669C155.102 26.669 156.636 27.3534 157.841 28.7222C159.046 30.091 159.635 31.6427 159.635 33.3733L146.727 33.3743ZM159.842 27.8155C159.098 26.8293 158.176 26.1006 157.075 25.6266C155.974 25.1527 154.695 24.9167 153.207 24.9167C150.455 24.9167 148.321 25.7623 146.802 27.4537C145.283 29.145 144.526 31.446 144.526 34.3587C144.526 37.2713 145.255 39.5703 146.713 41.2911C148.29 43.1791 150.506 44.1231 153.383 44.1231C154.528 44.1231 155.587 43.9511 156.561 43.6089C157.535 43.2667 158.387 42.7809 159.115 42.1535C160.394 40.9391 161.203 39.4395 161.547 37.6597H159.25C158.462 40.7405 156.501 42.2814 153.364 42.2814C151.149 42.2814 149.447 41.5281 148.258 40.0217C147.232 38.7305 146.72 37.0579 146.72 35.0027H161.865C161.865 31.9465 161.196 29.5501 159.835 27.8244L159.842 27.8155Z" fill="white"/>
<path d="M184.316 36.1631C184.316 41.5124 181.053 44.1871 174.527 44.1871C170.617 44.1871 167.763 43.2657 165.964 41.4337C164.491 39.9194 163.757 37.6105 163.757 34.5032H166.384C166.384 39.4966 169.098 41.9933 174.526 41.9933C177.129 41.9933 179.011 41.4819 180.179 40.4612C181.16 39.5585 181.651 38.1435 181.651 36.2191C181.651 34.3134 180.982 32.978 179.643 32.211C178.885 31.798 177.04 31.2769 174.087 30.6495C170.383 29.9022 167.983 29.1568 166.882 28.4105C165.29 27.3091 164.502 25.4438 164.502 22.8114C164.502 20.356 165.171 18.529 166.532 17.3303C167.99 16.0146 170.489 15.3557 174.028 15.3557C180.424 15.3557 183.622 18.1641 183.622 23.7809H180.972C180.972 19.5723 178.597 17.4699 173.849 17.4699C171.466 17.4699 169.725 17.8927 168.623 18.7482C167.58 19.6529 167.061 20.9804 167.061 22.7307C167.061 24.5597 167.731 25.8479 169.069 26.5952C169.783 27.0279 171.881 27.6277 175.361 28.3947C178.634 29.0437 180.843 29.8009 181.981 30.6564C183.543 31.7184 184.324 33.5572 184.324 36.1631H184.316ZM205.662 38.8928C204.68 39.9322 203.57 40.712 202.335 41.2331C201.1 41.7543 199.715 42.0129 198.182 42.0129C195.055 42.0129 192.529 40.8988 190.6 38.6715C188.671 36.4443 187.709 33.4756 187.709 29.7655C187.709 25.899 188.665 22.8861 190.578 20.7267C192.491 18.5673 195.025 17.4886 198.181 17.4886C201.381 17.4886 203.898 18.6175 205.729 20.8742C206.696 21.9755 207.41 23.2598 207.872 24.7318C208.335 26.2039 208.564 27.8824 208.564 29.7665C208.564 33.6133 207.596 36.6557 205.66 38.8918M207.057 40.7129C208.426 39.4366 209.439 37.8908 210.094 36.0736C210.749 34.2564 211.077 32.1599 211.077 29.7822C211.077 25.5195 210.006 22.1122 207.864 19.528C206.719 18.114 205.335 17.0628 203.714 16.3755C202.093 15.6881 200.241 15.3429 198.158 15.3429C194.112 15.3429 190.944 16.641 188.638 19.232C186.332 21.8231 185.18 25.3405 185.18 29.7803C185.18 34.101 186.343 37.5879 188.67 40.239C190.997 42.8901 194.176 44.2166 198.205 44.2166C199.782 44.2166 201.156 44.0759 202.331 43.7937C203.505 43.5115 204.502 43.0788 205.32 42.4957L209.201 46.0524L210.823 44.0838L207.064 40.7139L207.057 40.7129ZM230.745 43.5223H212.787V16.0283L215.255 15.9693V41.2184H230.76L230.738 43.5135L230.745 43.5223Z" fill="#367FAF"/>
<path d="M35.8763 38.9076C36.1262 36.5771 36.0511 36.2349 37.6003 36.6125L37.9945 36.6518C39.186 36.7128 40.7441 36.4374 41.6597 35.9605C43.6306 34.9359 44.7983 33.2249 42.8556 33.6743C38.4229 34.6989 38.1179 33.0154 38.1179 33.0154C42.7984 25.2323 44.7552 15.3518 43.0668 12.9328C38.4519 6.33759 30.4863 9.45672 30.345 9.53833L30.3026 9.54817C29.4265 9.34462 28.4462 9.22367 27.3455 9.204C25.3396 9.16663 23.8179 9.794 22.6628 10.7744C22.6628 10.7744 8.43785 4.20572 9.09978 19.0344C9.2411 22.1889 13.1346 42.9028 17.7779 36.6459C19.4751 34.3577 21.1158 32.4235 21.1158 32.4235C21.9714 33.0569 22.9508 33.3371 23.9279 33.2278L24.0068 33.1521C23.9822 33.4373 23.9919 33.7126 24.0387 34.043C22.8428 35.5406 23.1938 35.8032 20.8019 36.3558C18.3825 36.9143 19.8038 37.9095 20.732 38.1701C21.8573 38.4847 24.4605 38.9321 26.2194 36.1739L26.1495 36.4886C26.6181 36.9094 26.5868 39.5123 26.6538 41.3728C26.7207 43.2332 26.8323 44.9688 27.1699 45.9925C27.5076 47.0161 27.9077 49.6505 31.0508 48.8972C33.6777 48.2659 35.6866 47.3583 35.8703 38.9115" fill="#231F20"/>
<path d="M35.8763 38.9076C36.1262 36.5771 36.0511 36.2349 37.6003 36.6125L37.9945 36.6518C39.186 36.7128 40.7441 36.4374 41.6597 35.9605C43.6306 34.9359 44.7983 33.2249 42.8556 33.6743C38.4229 34.6989 38.1179 33.0154 38.1179 33.0154C42.7984 25.2323 44.7552 15.3518 43.0668 12.9328C38.4519 6.33759 30.4863 9.45672 30.345 9.53833L30.3026 9.54817C29.4265 9.34462 28.4462 9.22367 27.3455 9.204C25.3396 9.16663 23.8179 9.794 22.6628 10.7744C22.6628 10.7744 8.43785 4.20572 9.09978 19.0344C9.2411 22.1889 13.1346 42.9028 17.7779 36.6459C19.4751 34.3577 21.1158 32.4235 21.1158 32.4235C21.9714 33.0569 22.9508 33.3371 23.9279 33.2278L24.0068 33.1521C23.9822 33.4373 23.9919 33.7126 24.0387 34.043C22.8428 35.5406 23.1938 35.8032 20.8019 36.3558C18.3825 36.9143 19.8038 37.9095 20.732 38.1701C21.8573 38.4847 24.4605 38.9321 26.2194 36.1739L26.1495 36.4886C26.6181 36.9094 26.5868 39.5123 26.6538 41.3728C26.7207 43.2332 26.8323 44.9688 27.1699 45.9925C27.5076 47.0161 27.9077 49.6505 31.0508 48.8972C33.6777 48.2659 35.6866 47.3583 35.8703 38.9115" stroke="#231F20" stroke-width="4.108"/>
<path d="M42.8549 33.6733C38.4221 34.6979 38.1172 33.0144 38.1172 33.0144C42.7976 25.2304 44.7544 15.3498 43.0661 12.9318C38.4593 6.3366 30.4863 9.45672 30.345 9.53833L30.3019 9.54817C29.4257 9.34462 28.4455 9.22367 27.344 9.204C25.3381 9.16762 23.8164 9.794 22.6621 10.7744C22.6621 10.7744 8.43636 4.20572 9.09829 19.0344C9.23961 22.1889 13.1324 42.9038 17.7764 36.6459C19.4736 34.3577 21.1136 32.4234 21.1136 32.4234C21.9691 33.0569 22.9486 33.3371 23.9257 33.2278L24.0053 33.1521C23.9807 33.4373 23.9919 33.7126 24.0373 34.043C22.8413 35.5406 23.1924 35.8032 20.8019 36.3558C18.3818 36.9143 19.8038 37.9095 20.732 38.1701C21.8573 38.4847 24.4605 38.9321 26.2194 36.1739L26.1495 36.4885C26.6181 36.9094 26.9476 39.2252 26.8933 41.3265C26.839 43.4279 26.801 44.8665 27.1707 45.9934C27.5403 47.1203 27.9085 49.6514 31.0531 48.8982C33.68 48.2669 35.0418 46.6326 35.2307 43.9048C35.3646 41.9657 35.6695 42.2528 35.6881 40.5192L35.9321 39.6991C36.2132 37.0707 35.9767 36.223 37.5951 36.6174L37.9893 36.6567C39.1808 36.7177 40.7397 36.4423 41.6545 35.9654C43.6254 34.9408 44.7931 33.2298 42.8504 33.6792L42.8549 33.6733Z" fill="#417BA2"/>
<path d="M26.4165 35.1807C26.2945 40.0708 26.4463 44.9964 26.8739 46.1941C27.3016 47.3918 28.2156 49.7193 31.3602 48.9641C33.9871 48.3328 34.9429 47.1115 35.3571 44.4152C35.6546 42.4318 36.2519 36.9222 36.327 35.7943M22.6472 10.6623C22.6472 10.6623 8.40437 4.14278 9.07375 18.9783C9.2225 22.1329 13.1078 42.8478 17.7533 36.58C19.4505 34.2918 20.9849 32.4972 20.9849 32.4972M30.345 9.47245C29.8519 9.64552 38.2637 6.02685 43.0438 12.8718C44.7321 15.2908 42.776 25.1714 38.0949 32.9554" stroke="white" stroke-width="1.369" stroke-linecap="round" stroke-linejoin="round"/>
<path d="M38.0874 32.9545C38.0874 32.9545 38.3849 34.6359 42.8251 33.6113C44.7678 33.1619 43.5986 34.8729 41.6277 35.8985C40.0108 36.7393 36.3857 36.9547 36.327 35.7933C36.1745 32.7942 38.2347 33.7057 38.086 32.9545C37.9521 32.2779 37.0298 31.6142 36.42 29.9582C35.8882 28.5127 29.1238 17.4286 38.2957 19.0747C38.6319 18.996 35.903 9.29643 27.3179 9.1391C18.7328 8.98177 19.0177 20.9686 19.0177 20.9686" stroke="white" stroke-width="1.369" stroke-linecap="round" stroke-linejoin="bevel"/>
<path d="M24.0142 33.9801C22.8168 35.4777 23.1693 35.7402 20.7774 36.2929C18.3572 36.8534 19.7793 37.8465 20.7075 38.1071C21.8328 38.4218 24.4359 38.8692 26.1949 36.109C26.7304 35.2682 26.1919 33.926 25.4563 33.5857C25.1008 33.4205 24.6256 33.214 24.0135 33.9791L24.0142 33.9801Z" stroke="white" stroke-width="1.369" stroke-linejoin="round"/>
<path d="M23.9361 33.9545C23.8156 33.0734 24.1942 32.0272 24.6003 30.8C25.2102 28.9611 26.6173 27.1203 25.4928 21.2843C24.6538 16.935 19.0244 20.3796 19.0222 20.9696C19.0199 21.5596 19.2765 23.9589 18.9277 26.7516C18.4725 30.3978 20.9976 33.4805 23.9049 33.1659" stroke="white" stroke-width="1.369" stroke-linecap="round" stroke-linejoin="round"/>
<path d="M22.5966 20.8791C22.5713 21.0807 22.9261 21.6166 23.388 21.6894C23.8498 21.7621 24.2433 21.3413 24.2693 21.1407C24.2953 20.9401 23.9406 20.7179 23.478 20.6451C23.0153 20.5723 22.6212 20.6785 22.5966 20.8791Z" fill="white" stroke="white" stroke-width="0.456"/>
<path d="M36.6468 20.4691C36.6721 20.6706 36.3181 21.2066 35.8554 21.2793C35.3928 21.3521 34.9986 20.9312 34.9734 20.7287C34.9481 20.5261 35.3028 20.3058 35.7647 20.2331C36.2266 20.1603 36.62 20.2655 36.6461 20.4671L36.6468 20.4691Z" fill="white" stroke="white" stroke-width="0.228"/>
<path d="M38.2979 19.0747C38.3738 20.6549 37.9945 21.7297 37.9461 23.4132C37.8755 25.8577 38.9859 28.6543 37.3124 31.4568" stroke="white" stroke-width="1.369" stroke-linecap="round" stroke-linejoin="round"/>
</svg>
